# xmcd CD database file
#
# Track frame offsets:
#	150
#	24407
#	57287
#	78157
#	97835
#	119492
#	151202
#	168792
#	188985
#	216992
#
# Disc length: 3221 seconds
#
# Revision: 0
# Processed by: cddbd v1.5.2PL0 Copyright (c) Steve Scherf et al.
# Submitted via: CdAid (MTCDDB.DLL V2003.12.21)
#
DISCID=760c930a
DTITLE=Little Axe - Never Turn Back
DYEAR=1993
DGENRE=Blues
TTITLE0=Ride On
TTITLE1=Never Turn Back (Parts 1/2)
TTITLE2=Hammerhead
TTITLE3=Wolf Story
TTITLE4=15 To 4
TTITLE5=Hear My Cry
TTITLE6=Wake The Town
TTITLE7=Falling Down
TTITLE8=Dayton
TTITLE9=Hammerhead (Re-Mix)
EXTD=ID3G:   0 YEAR: 1993
EXTT0=
EXTT1=
EXTT2=
EXTT3=
EXTT4=
EXTT5=
EXTT6=
EXTT7=
EXTT8=
EXTT9=
PLAYORDER=
